<svg width="40" height="40" viewBox="0 0 40 40" fill="none" xmlns="http://www.w3.org/2000/svg">
<path d="M0 6C0 2.68629 2.68629 0 6 0H34C37.3137 0 40 2.68629 40 6V34C40 37.3137 37.3137 40 34 40H6C2.68629 40 0 37.3137 0 34V6Z" fill="white"/>
<path d="M21.4417 27.5C21.2952 27.7526 21.0849 27.9622 20.8319 28.108C20.5788 28.2537 20.292 28.3304 20 28.3304C19.708 28.3304 19.4212 28.2537 19.1681 28.108C18.9151 27.9622 18.7048 27.7526 18.5583 27.5M25 16.6667C25 15.3406 24.4732 14.0688 23.5355 13.1312C22.5979 12.1935 21.3261 11.6667 20 11.6667C18.6739 11.6667 17.4021 12.1935 16.4645 13.1312C15.5268 14.0688 15 15.3406 15 16.6667C15 22.5 12.5 24.1667 12.5 24.1667H27.5C27.5 24.1667 25 22.5 25 16.6667Z" stroke="#667085" stroke-width="1.66667" stroke-linecap="round" stroke-linejoin="round"/>
</svg>
