<svg width="145" height="38" viewBox="0 0 145 38" fill="none" xmlns="http://www.w3.org/2000/svg">
<g filter="url(#filter0_dd_1_12066)">
<rect x="3.15" y="2.15" width="31.7" height="31.7" rx="7.85" fill="white"/>
<rect x="3.15" y="2.15" width="31.7" height="31.7" rx="7.85" fill="url(#paint0_linear_1_12066)"/>
<path fill-rule="evenodd" clip-rule="evenodd" d="M19 4.03885C11.2895 4.03885 5.03885 10.2895 5.03885 18C5.03885 25.7106 11.2895 31.9612 19 31.9612C26.7106 31.9612 32.9612 25.7106 32.9612 18C32.9612 10.2895 26.7106 4.03885 19 4.03885ZM4.96118 18C4.96118 10.2466 11.2466 3.96118 19 3.96118C26.7535 3.96118 33.0389 10.2466 33.0389 18C33.0389 25.7535 26.7535 32.0389 19 32.0389C11.2466 32.0389 4.96118 25.7535 4.96118 18Z" fill="#D0D5DD"/>
<path fill-rule="evenodd" clip-rule="evenodd" d="M19 14.0779C16.8338 14.0779 15.0777 15.834 15.0777 18.0002C15.0777 20.1665 16.8338 21.9226 19 21.9226C21.1662 21.9226 22.9223 20.1665 22.9223 18.0002C22.9223 15.834 21.1662 14.0779 19 14.0779ZM15 18.0002C15 15.7911 16.7909 14.0002 19 14.0002C21.2091 14.0002 23 15.7911 23 18.0002C23 20.2094 21.2091 22.0002 19 22.0002C16.7909 22.0002 15 20.2094 15 18.0002Z" fill="#D0D5DD"/>
<path fill-rule="evenodd" clip-rule="evenodd" d="M19 15.3201C17.5201 15.3201 16.3204 16.5198 16.3204 17.9997C16.3204 19.4796 17.5201 20.6793 19 20.6793C20.4799 20.6793 21.6796 19.4796 21.6796 17.9997C21.6796 16.5198 20.4799 15.3201 19 15.3201ZM16.2427 17.9997C16.2427 16.4769 17.4772 15.2424 19 15.2424C20.5228 15.2424 21.7573 16.4769 21.7573 17.9997C21.7573 19.5225 20.5228 20.757 19 20.757C17.4772 20.757 16.2427 19.5225 16.2427 17.9997Z" fill="#D0D5DD"/>
<path d="M18.9612 2H19.0389V34H18.9612V2Z" fill="#D0D5DD"/>
<path d="M35 17.9609L35 18.0386L3 18.0386L3 17.9609L35 17.9609Z" fill="#D0D5DD"/>
<path d="M29.6019 2H29.6796V34H29.6019V2Z" fill="#D0D5DD"/>
<path d="M13.6407 2H13.7184V34H13.6407V2Z" fill="#D0D5DD"/>
<path d="M24.2816 2H24.3592V34H24.2816V2Z" fill="#D0D5DD"/>
<path d="M8.32037 2H8.39804V34H8.32037V2Z" fill="#D0D5DD"/>
<path d="M35 28.6016L35 28.6792L3 28.6792L3 28.6016L35 28.6016Z" fill="#D0D5DD"/>
<path d="M35 12.6406L35 12.7183L3 12.7183L3 12.6406L35 12.6406Z" fill="#D0D5DD"/>
<path d="M35 23.2812L35 23.3589L3 23.3589L3 23.2812L35 23.2812Z" fill="#D0D5DD"/>
<path d="M35 7.32031L35 7.39798L3 7.39798L3 7.32031L35 7.32031Z" fill="#D0D5DD"/>
<g filter="url(#filter1_dd_1_12066)">
<circle cx="19" cy="18" r="8" fill="url(#paint1_linear_1_12066)"/>
</g>
<g filter="url(#filter2_b_1_12066)">
<path d="M3 18H35V21.2C35 25.6804 35 27.9206 34.1281 29.6319C33.3611 31.1372 32.1372 32.3611 30.6319 33.1281C28.9206 34 26.6804 34 22.2 34H15.8C11.3196 34 9.07937 34 7.36808 33.1281C5.86278 32.3611 4.63893 31.1372 3.87195 29.6319C3 27.9206 3 25.6804 3 21.2V18Z" fill="white" fill-opacity="0.2"/>
</g>
<rect x="3.15" y="2.15" width="31.7" height="31.7" rx="7.85" stroke="#D0D5DD" stroke-width="0.3"/>
</g>
<path d="M54.3537 10.4535V19.8427C54.3537 21.8171 52.9901 23.2376 50.7741 23.2376C48.5653 23.2376 47.1946 21.8171 47.1946 19.8427V10.4535H45V20.0202C45 23.0742 47.2869 25.2404 50.7741 25.2404C54.2614 25.2404 56.5554 23.0742 56.5554 20.0202V10.4535H54.3537Z" fill="#101828"/>
<path d="M61.6992 18.5217C61.6992 16.7816 62.7646 15.7873 64.2418 15.7873C65.6836 15.7873 66.5572 16.7319 66.5572 18.3157V24.9989H68.6808V18.06C68.6808 15.3611 67.1964 13.9478 64.9663 13.9478C63.3256 13.9478 62.2532 14.7077 61.7489 15.8654H61.614V14.0898H59.5756V24.9989H61.6992V18.5217Z" fill="#101828"/>
<path d="M76.6211 14.0898H74.3839V11.4762H72.2603V14.0898H70.6623V15.7944H72.2603V22.2362C72.2532 24.2177 73.766 25.1765 75.4421 25.141C76.1168 25.1339 76.5714 25.006 76.82 24.9137L76.4364 23.1594C76.2944 23.1879 76.0316 23.2518 75.6907 23.2518C75.0018 23.2518 74.3839 23.0245 74.3839 21.7958V15.7944H76.6211V14.0898Z" fill="#101828"/>
<path d="M78.9702 24.9989H81.0938V14.0898H78.9702V24.9989ZM80.0426 12.4066C80.7741 12.4066 81.3849 11.8384 81.3849 11.1424C81.3849 10.4464 80.7741 9.87109 80.0426 9.87109C79.304 9.87109 78.7003 10.4464 78.7003 11.1424C78.7003 11.8384 79.304 12.4066 80.0426 12.4066Z" fill="#101828"/>
<path d="M89.043 14.0898H86.8058V11.4762H84.6822V14.0898H83.0842V15.7944H84.6822V22.2362C84.6751 24.2177 86.1879 25.1765 87.864 25.141C88.5387 25.1339 88.9933 25.006 89.2418 24.9137L88.8583 23.1594C88.7163 23.1879 88.4535 23.2518 88.1126 23.2518C87.4237 23.2518 86.8058 23.0245 86.8058 21.7958V15.7944H89.043V14.0898Z" fill="#101828"/>
<path d="M93.75 10.4535H91.6264V24.9989H93.75V10.4535Z" fill="#101828"/>
<path d="M101.309 25.2191C103.688 25.2191 105.371 24.0472 105.854 22.2717L103.844 21.9094C103.461 22.9393 102.537 23.4648 101.33 23.4648C99.5117 23.4648 98.2901 22.2859 98.2333 20.1836H105.989V19.4308C105.989 15.489 103.631 13.9478 101.159 13.9478C98.1197 13.9478 96.1168 16.2631 96.1168 19.6154C96.1168 23.0032 98.0913 25.2191 101.309 25.2191ZM98.2404 18.5927C98.3256 17.0444 99.4478 15.7021 101.174 15.7021C102.821 15.7021 103.901 16.9237 103.908 18.5927H98.2404Z" fill="#101828"/>
<path d="M112.429 25.212C114.418 25.212 115.199 23.9975 115.582 23.3015H115.76V24.9989H117.834V10.4535H115.71V15.8583H115.582C115.199 15.1836 114.474 13.9478 112.443 13.9478C109.808 13.9478 107.869 16.0288 107.869 19.5657C107.869 23.0955 109.78 25.212 112.429 25.212ZM112.898 23.4009C111.001 23.4009 110.014 21.7319 110.014 19.5444C110.014 17.3782 110.98 15.7518 112.898 15.7518C114.751 15.7518 115.746 17.2646 115.746 19.5444C115.746 21.8384 114.73 23.4009 112.898 23.4009Z" fill="#101828"/>
<path d="M135.682 10.4535V19.8427C135.682 21.8171 134.318 23.2376 132.102 23.2376C129.893 23.2376 128.523 21.8171 128.523 19.8427V10.4535H126.328V20.0202C126.328 23.0742 128.615 25.2404 132.102 25.2404C135.589 25.2404 137.884 23.0742 137.884 20.0202V10.4535H135.682Z" fill="#101828"/>
<path d="M143.269 10.4535H141.074V24.9989H143.269V10.4535Z" fill="#101828"/>
<defs>
<filter id="filter0_dd_1_12066" x="0" y="0" width="38" height="38" filterUnits="userSpaceOnUse" color-interpolation-filters="sRGB">
<feFlood flood-opacity="0" result="BackgroundImageFix"/>
<feColorMatrix in="SourceAlpha" type="matrix" values="0 0 0 0 0 0 0 0 0 0 0 0 0 0 0 0 0 0 127 0" result="hardAlpha"/>
<feOffset dy="1"/>
<feGaussianBlur stdDeviation="1"/>
<feColorMatrix type="matrix" values="0 0 0 0 0.0627451 0 0 0 0 0.0941176 0 0 0 0 0.156863 0 0 0 0.06 0"/>
<feBlend mode="normal" in2="BackgroundImageFix" result="effect1_dropShadow_1_12066"/>
<feColorMatrix in="SourceAlpha" type="matrix" values="0 0 0 0 0 0 0 0 0 0 0 0 0 0 0 0 0 0 127 0" result="hardAlpha"/>
<feOffset dy="1"/>
<feGaussianBlur stdDeviation="1.5"/>
<feColorMatrix type="matrix" values="0 0 0 0 0.0627451 0 0 0 0 0.0941176 0 0 0 0 0.156863 0 0 0 0.1 0"/>
<feBlend mode="normal" in2="effect1_dropShadow_1_12066" result="effect2_dropShadow_1_12066"/>
<feBlend mode="normal" in="SourceGraphic" in2="effect2_dropShadow_1_12066" result="shape"/>
</filter>
<filter id="filter1_dd_1_12066" x="8" y="8" width="22" height="22" filterUnits="userSpaceOnUse" color-interpolation-filters="sRGB">
<feFlood flood-opacity="0" result="BackgroundImageFix"/>
<feColorMatrix in="SourceAlpha" type="matrix" values="0 0 0 0 0 0 0 0 0 0 0 0 0 0 0 0 0 0 127 0" result="hardAlpha"/>
<feOffset dy="1"/>
<feGaussianBlur stdDeviation="1"/>
<feColorMatrix type="matrix" values="0 0 0 0 0.0627451 0 0 0 0 0.0941176 0 0 0 0 0.156863 0 0 0 0.06 0"/>
<feBlend mode="normal" in2="BackgroundImageFix" result="effect1_dropShadow_1_12066"/>
<feColorMatrix in="SourceAlpha" type="matrix" values="0 0 0 0 0 0 0 0 0 0 0 0 0 0 0 0 0 0 127 0" result="hardAlpha"/>
<feOffset dy="1"/>
<feGaussianBlur stdDeviation="1.5"/>
<feColorMatrix type="matrix" values="0 0 0 0 0.0627451 0 0 0 0 0.0941176 0 0 0 0 0.156863 0 0 0 0.1 0"/>
<feBlend mode="normal" in2="effect1_dropShadow_1_12066" result="effect2_dropShadow_1_12066"/>
<feBlend mode="normal" in="SourceGraphic" in2="effect2_dropShadow_1_12066" result="shape"/>
</filter>
<filter id="filter2_b_1_12066" x="-2" y="13" width="42" height="26" filterUnits="userSpaceOnUse" color-interpolation-filters="sRGB">
<feFlood flood-opacity="0" result="BackgroundImageFix"/>
<feGaussianBlur in="BackgroundImage" stdDeviation="2.5"/>
<feComposite in2="SourceAlpha" operator="in" result="effect1_backgroundBlur_1_12066"/>
<feBlend mode="normal" in="SourceGraphic" in2="effect1_backgroundBlur_1_12066" result="shape"/>
</filter>
<linearGradient id="paint0_linear_1_12066" x1="19" y1="2" x2="19" y2="34" gradientUnits="userSpaceOnUse">
<stop stop-color="white"/>
<stop offset="1" stop-color="#D0D5DD"/>
</linearGradient>
<linearGradient id="paint1_linear_1_12066" x1="15" y1="26" x2="23" y2="10" gradientUnits="userSpaceOnUse">
<stop stop-color="#53389E"/>
<stop offset="1" stop-color="#6941C6"/>
</linearGradient>
</defs>
</svg>
